<?xml version="1.0" encoding="utf-8"?>
<!-- Generator: Adobe Illustrator 27.5.0, SVG Export Plug-In . SVG Version: 6.00 Build 0)  -->
<svg version="1.1" id="Ebene_1" xmlns="http://www.w3.org/2000/svg" xmlns:xlink="http://www.w3.org/1999/xlink" x="0px" y="0px"
	 viewBox="0 0 1200 1200" style="enable-background:new 0 0 1200 1200;" xml:space="preserve">
<g>
	<polygon style="fill:#81858A;" points="537.638,638.42 380.847,638.42 389.817,570.958 529.948,570.958 	"/>
	<path style="fill:#D0D6DB;" d="M150.046,514.459v41.656c0,8.455,6.919,15.377,15.381,15.377h587.635
		c8.451,0,15.372-6.922,15.372-15.377v-41.656H150.046z"/>
	<path style="fill:#3E3D40;" d="M768.433,160.728c0-8.458-6.92-15.378-15.372-15.378H165.427c-8.462,0-15.381,6.92-15.381,15.378
		v353.731h618.387V160.728z"/>
	<rect x="171.833" y="165.855" style="fill:#ECEDED;" width="574.816" height="328.099"/>
	<polygon style="fill:#D0D6DB;" points="380.847,638.42 537.638,638.42 565.214,644.937 353.267,645.094 	"/>
	<polygon style="fill:#81858A;" points="563.771,648.56 354.707,648.56 353.321,645.094 565.214,644.937 	"/>
	<path style="fill:#3E3D40;" d="M470.241,544.792c0,6.073-4.925,10.998-10.999,10.998c-6.083,0-11.002-4.925-11.002-10.998
		c0-6.078,4.919-11.004,11.002-11.004C465.316,533.787,470.241,538.713,470.241,544.792z"/>
</g>
<g>
	<path style="fill:#3E3D40;" d="M972.69,766.502H590.454c-5.302,0-9.638,4.337-9.638,9.633v254.738h401.503V776.135
		C982.319,770.839,977.983,766.502,972.69,766.502z"/>
	<rect x="598.68" y="783.099" style="fill:#ECEDED;" width="366.179" height="235.281"/>
	<polygon style="fill:#81858A;" points="1025.348,1054.65 537.117,1054.65 513.025,1045.816 1049.44,1045.816 	"/>
	<path style="fill:#87888A;" d="M782.903,776.444c0,0.941-0.757,1.704-1.706,1.704c-0.94,0-1.705-0.763-1.705-1.704
		c0-0.948,0.765-1.709,1.705-1.709C782.146,774.735,782.903,775.496,782.903,776.444z"/>
	<rect x="737.602" y="1030.832" style="fill:#B1B3B4;" width="86.928" height="8.829"/>
	<path style="fill:#D0D6DB;" d="M817.635,1030.832v3.208c0,2.208-1.805,4.018-4.014,4.018h-65.048c-2.203,0-4.011-1.809-4.011-4.018
		v-3.208H513.025v14.984h536.415v-14.984H817.635z"/>
</g>
<g>
	<path style="fill:#3E3D40;" d="M411.525,844.08c6.684,0,12.147,5.464,12.147,12.152v186.275c0,6.675-5.463,12.144-12.147,12.144
		H162.153c-6.681,0-12.153-5.469-12.153-12.144V856.232c0-6.688,5.472-12.152,12.153-12.152H411.525z"/>
	<rect x="173.286" y="864.498" style="fill:#ECEDED;" width="227.105" height="169.737"/>
	<path style="fill:#58585A;" d="M162.486,946.661c1.492,0,2.699,1.219,2.699,2.701c0,1.491-1.207,2.702-2.699,2.702
		c-1.491,0-2.698-1.211-2.698-2.702C159.789,947.88,160.995,946.661,162.486,946.661z"/>
	<path style="fill:#87888A;" d="M411.191,944.644c2.605,0,4.725,2.112,4.725,4.718c0,2.615-2.12,4.729-4.725,4.729
		c-2.613,0-4.725-2.115-4.725-4.729C406.466,946.756,408.578,944.644,411.191,944.644z"/>
</g>
<g>
	<g>
		<path style="fill:#3E3D40;" d="M1004.584,317.135c0,6.244-5.11,11.36-11.359,11.36h-50.238c-6.252,0-11.359-5.116-11.359-11.36
			V186.292c0-6.247,5.107-11.36,11.359-11.36h50.238c6.249,0,11.359,5.114,11.359,11.36V317.135z"/>
	</g>
	<rect x="936.981" y="195.903" style="fill:#ECEDED;" width="62.25" height="112.276"/>
	<path style="fill:#87888A;" d="M973.227,317.243c0,2.83-2.292,5.126-5.12,5.126c-2.828,0-5.123-2.296-5.123-5.126
		c0-2.825,2.295-5.12,5.123-5.12C970.935,312.123,973.227,314.418,973.227,317.243z"/>
	<path style="fill:#58585A;" d="M973.595,188.693c0,0.84-0.693,1.532-1.536,1.532h-9.551c-0.843,0-1.536-0.691-1.536-1.532l0,0
		c0-0.842,0.692-1.528,1.536-1.528h9.551C972.902,187.165,973.595,187.851,973.595,188.693L973.595,188.693z"/>
</g>
<g>
	<g>
		<path style="fill:#3E3D40;" d="M292.203,708.249c6.244,0,11.36,5.11,11.36,11.359v50.239c0,6.251-5.116,11.359-11.36,11.359
			H161.36c-6.247,0-11.36-5.107-11.36-11.359v-50.239c0-6.249,5.113-11.359,11.36-11.359H292.203z"/>
	</g>
	<rect x="170.971" y="713.602" style="fill:#ECEDED;" width="112.276" height="62.25"/>
	<path style="fill:#87888A;" d="M292.312,739.606c2.83,0,5.126,2.292,5.126,5.12c0,2.828-2.296,5.123-5.126,5.123
		c-2.825,0-5.12-2.295-5.12-5.123C287.191,741.898,289.487,739.606,292.312,739.606z"/>
	<path style="fill:#58585A;" d="M163.762,739.238c0.84,0,1.532,0.693,1.532,1.536v9.551c0,0.844-0.691,1.536-1.532,1.536l0,0
		c-0.842,0-1.528-0.692-1.528-1.536v-9.551C162.234,739.931,162.92,739.238,163.762,739.238L163.762,739.238z"/>
</g>
<g>
	<path style="fill:#3E3D40;" d="M1050,680.364c0,6.684-5.464,12.147-12.152,12.147H851.573c-6.675,0-12.144-5.463-12.144-12.147
		V430.992c0-6.681,5.469-12.153,12.144-12.153h186.275c6.688,0,12.152,5.472,12.152,12.153V680.364z"/>
	<rect x="859.845" y="442.125" style="fill:#ECEDED;" width="169.737" height="227.105"/>
	<path style="fill:#58585A;" d="M947.419,431.325c0,1.492-1.219,2.699-2.702,2.699c-1.491,0-2.702-1.207-2.702-2.699
		c0-1.491,1.211-2.698,2.702-2.698C946.2,428.627,947.419,429.834,947.419,431.325z"/>
	<path style="fill:#87888A;" d="M949.436,680.029c0,2.605-2.112,4.725-4.719,4.725c-2.615,0-4.729-2.12-4.729-4.725
		c0-2.613,2.115-4.725,4.729-4.725C947.324,675.304,949.436,677.416,949.436,680.029z"/>
</g>
</svg>
